<svg width="252" height="61" viewBox="0 0 252 61" fill="none" xmlns="http://www.w3.org/2000/svg">
<path d="M26.4425 9.6853H0V21.6833H26.4425V9.6853Z" fill="#E5A226"/>
<path d="M55.7649 9.6853H29.3224V21.6833H55.7649V9.6853Z" fill="#BE7A12"/>
<path d="M85.0763 9.6853H58.6338V21.6833H85.0763V9.6853Z" fill="#E5A226"/>
<path d="M42.5436 23.8115H16.1011V35.8095H42.5436V23.8115Z" fill="#E5A226"/>
<path d="M71.8551 23.8115H45.4126V35.8095H71.8551V23.8115Z" fill="#E5A226"/>
<path d="M26.4425 37.9377H0V49.9357H26.4425V37.9377Z" fill="#BE7A13"/>
<path d="M55.7649 37.9377H29.3224V49.9357H55.7649V37.9377Z" fill="#E5A226"/>
<path d="M85.0763 37.9377H58.6338V49.9357H85.0763V37.9377Z" fill="#BE7A13"/>
<path d="M106.654 60.0554V57.8838H107.254C107.504 57.5689 107.701 57.1454 107.864 56.5917C108.028 56.0379 108.104 55.4082 108.104 54.7024V53.3343H111.693V57.8838H112.522V60.0554H111.966V58.3941H107.21V60.0554H106.654ZM107.93 57.8838H111.115V53.8338H108.683V54.8544C108.683 56.0488 108.432 57.0586 107.93 57.8838Z" fill="black"/>
<path d="M116.133 58.5352C115.391 58.5352 114.78 58.2855 114.29 57.7752C113.799 57.2649 113.559 56.6242 113.559 55.8533C113.559 55.0933 113.799 54.4635 114.29 53.9532C114.78 53.4429 115.359 53.204 116.068 53.204C116.831 53.204 117.42 53.4429 117.835 53.9098C118.249 54.3875 118.468 54.9738 118.468 55.6687V55.9728H114.159C114.17 56.5265 114.366 57.0151 114.726 57.4169C115.086 57.8186 115.566 58.0249 116.144 58.0249C116.82 58.0249 117.399 57.7426 117.889 57.1671L118.282 57.482C117.737 58.1878 117.017 58.5352 116.133 58.5352ZM114.181 55.5167H117.889C117.868 54.9738 117.693 54.5287 117.377 54.1921C117.049 53.8555 116.613 53.6926 116.068 53.6926C115.533 53.6926 115.086 53.888 114.737 54.2572C114.377 54.6481 114.191 55.0607 114.181 55.5167Z" fill="black"/>
<path d="M120.148 58.3941V53.3343H120.737V55.723H120.769L123.246 53.3343H124.096L121.446 55.7447L124.369 58.3941H123.496L120.769 55.8208H120.737V58.3941H120.148Z" fill="black"/>
<path d="M127.631 58.5352C126.856 58.5352 126.213 58.2855 125.711 57.7752C125.209 57.2649 124.947 56.6351 124.947 55.8642C124.947 55.0933 125.198 54.4526 125.7 53.9532C126.213 53.4537 126.856 53.204 127.631 53.204C128.405 53.204 129.06 53.4537 129.573 53.9532C130.074 54.4526 130.325 55.0933 130.325 55.8642C130.325 56.6351 130.074 57.2649 129.573 57.7752C129.071 58.2855 128.416 58.5352 127.631 58.5352ZM127.631 58.0249C128.253 58.0249 128.754 57.8186 129.136 57.406C129.518 56.9934 129.703 56.4831 129.703 55.8642C129.703 55.2453 129.518 54.735 129.136 54.3224C128.754 53.9098 128.253 53.6926 127.631 53.6926C127.009 53.6926 126.518 53.8989 126.136 54.3224C125.755 54.7458 125.569 55.2561 125.569 55.8642C125.569 56.4831 125.755 56.9934 126.136 57.406C126.518 57.8186 127.02 58.0249 127.631 58.0249Z" fill="black"/>
<path d="M132.583 61H131.994V53.3343H132.583V54.3441H132.616C132.823 53.964 133.118 53.6817 133.478 53.4863C133.838 53.2908 134.231 53.204 134.645 53.204C135.42 53.204 136.041 53.4537 136.521 53.9532C137.001 54.4526 137.252 55.0933 137.252 55.8533C137.252 56.6242 137.012 57.254 136.532 57.7643C136.052 58.2747 135.43 58.5244 134.667 58.5244C134.241 58.5244 133.849 58.4267 133.478 58.2421C133.107 58.0466 132.823 57.7752 132.627 57.406H132.583V61ZM136.052 57.406C136.423 56.9934 136.598 56.4831 136.598 55.8642C136.598 55.2453 136.412 54.735 136.052 54.3224C135.692 53.9098 135.191 53.6926 134.569 53.6926C133.98 53.6926 133.489 53.8989 133.107 54.3224C132.725 54.7458 132.518 55.2561 132.518 55.8642C132.518 56.4831 132.714 56.9934 133.107 57.406C133.5 57.8186 133.98 58.0249 134.569 58.0249C135.191 58.0249 135.681 57.8186 136.052 57.406Z" fill="black"/>
<path d="M140.23 58.5352C139.783 58.5352 139.379 58.4049 139.019 58.1552C138.659 57.9055 138.485 57.5255 138.485 57.026C138.485 56.7328 138.55 56.4831 138.67 56.2768C138.801 56.0705 138.954 55.9076 139.161 55.7882C139.358 55.6687 139.609 55.571 139.892 55.5059C140.187 55.4407 140.47 55.3973 140.754 55.3756C141.027 55.3539 141.343 55.343 141.703 55.343H142.085V55.115C142.085 54.1703 141.605 53.7035 140.645 53.7035C140.045 53.7035 139.543 53.8989 139.129 54.3006L138.801 53.9098C139.281 53.4429 139.914 53.2148 140.699 53.2148C141.288 53.2148 141.758 53.3669 142.117 53.6817C142.477 53.9966 142.652 54.4527 142.652 55.0498V57.2649C142.652 57.7209 142.685 58.1009 142.739 58.4049H142.205C142.15 58.0575 142.117 57.7426 142.117 57.4712H142.096C141.703 58.1769 141.081 58.5352 140.23 58.5352ZM140.372 58.0466C140.928 58.0466 141.354 57.862 141.648 57.5037C141.943 57.1454 142.096 56.7111 142.096 56.2116V55.799H141.714C139.979 55.799 139.107 56.2008 139.107 56.9934C139.107 57.3517 139.238 57.6232 139.489 57.786C139.729 57.9598 140.034 58.0466 140.372 58.0466Z" fill="black"/>
<path d="M145.706 58.3941V53.8338H143.83V53.3343H148.172V53.8338H146.295V58.3941H145.706Z" fill="black"/>
<path d="M149.448 58.3941V53.3343H150.048V57.5689L153.244 53.3343H153.888V58.3941H153.31V54.1269H153.288L150.092 58.3941H149.448Z" fill="black"/>
<path d="M155.95 58.3941V53.3343H158.23C158.677 53.3343 159.059 53.432 159.375 53.6274C159.691 53.8229 159.844 54.1486 159.844 54.6047C159.844 54.887 159.757 55.1258 159.582 55.3213C159.408 55.5167 159.189 55.647 158.917 55.7122V55.723C159.255 55.7665 159.528 55.8968 159.757 56.1139C159.986 56.3311 160.095 56.6351 160.095 57.0043C160.095 57.4494 159.931 57.786 159.593 58.0249C159.255 58.2638 158.819 58.3832 158.284 58.3832H155.95V58.3941ZM156.539 55.5167H158.197C158.48 55.5167 158.731 55.4516 158.939 55.2996C159.146 55.1584 159.255 54.9521 159.255 54.6698C159.255 54.3766 159.146 54.1703 158.928 54.0401C158.71 53.9098 158.437 53.8338 158.099 53.8338H156.539V55.5167ZM156.539 57.8838H158.186C158.568 57.8838 158.884 57.8078 159.124 57.6557C159.364 57.5037 159.473 57.2757 159.473 56.9608C159.473 56.646 159.364 56.4071 159.135 56.2442C158.906 56.0813 158.622 56.0053 158.262 56.0053H156.539V57.8838Z" fill="black"/>
<path d="M161.753 58.3941V53.3343H162.353V55.5167H165.473V53.3343H166.062V58.3941H165.473V56.0162H162.353V58.3941H161.753Z" fill="black"/>
<path d="M168.124 58.3941V53.3343H168.724V55.3213H170.087C170.709 55.3213 171.189 55.4624 171.516 55.7339C171.843 56.0053 172.018 56.3962 172.018 56.8848C172.018 57.3734 171.854 57.7426 171.527 58.0032C171.2 58.2638 170.72 58.3941 170.087 58.3941H168.124ZM168.724 57.8838H170.153C170.993 57.8838 171.407 57.5472 171.407 56.8848C171.407 56.1791 170.993 55.8208 170.153 55.8208H168.724V57.8838ZM173.011 58.3941V53.3343H173.6V58.3941H173.011Z" fill="black"/>
<path d="M177.854 58.5352C177.112 58.5352 176.501 58.2855 176.011 57.7752C175.52 57.2649 175.28 56.6242 175.28 55.8533C175.28 55.0933 175.52 54.4635 176.011 53.9532C176.501 53.4429 177.091 53.204 177.8 53.204C178.563 53.204 179.152 53.4429 179.567 53.9098C179.981 54.3875 180.199 54.9738 180.199 55.6687V55.9728H175.891C175.901 56.5265 176.098 57.0151 176.458 57.4169C176.818 57.8186 177.298 58.0249 177.876 58.0249C178.552 58.0249 179.13 57.7426 179.621 57.1671L180.014 57.482C179.458 58.1878 178.738 58.5352 177.854 58.5352ZM175.901 55.5167H179.61C179.589 54.9738 179.414 54.5287 179.098 54.1921C178.77 53.8555 178.334 53.6926 177.789 53.6926C177.254 53.6926 176.807 53.888 176.458 54.2572C176.098 54.6481 175.912 55.0607 175.901 55.5167Z" fill="black"/>
<path d="M184.585 58.3941V53.3343H188.817V58.3941H188.228V53.8338H185.185V58.3941H184.585Z" fill="black"/>
<path d="M193.159 58.5352C192.384 58.5352 191.741 58.2855 191.239 57.7752C190.737 57.2649 190.475 56.6351 190.475 55.8642C190.475 55.0933 190.726 54.4526 191.228 53.9532C191.73 53.4537 192.374 53.204 193.159 53.204C193.944 53.204 194.588 53.4537 195.101 53.9532C195.602 54.4526 195.853 55.0933 195.853 55.8642C195.853 56.6351 195.602 57.2649 195.101 57.7752C194.599 58.2855 193.944 58.5352 193.159 58.5352ZM193.159 58.0249C193.781 58.0249 194.283 57.8186 194.664 57.406C195.046 56.9934 195.232 56.4831 195.232 55.8642C195.232 55.2453 195.046 54.735 194.664 54.3224C194.283 53.9098 193.781 53.6926 193.159 53.6926C192.537 53.6926 192.046 53.8989 191.664 54.3224C191.283 54.7458 191.097 55.2561 191.097 55.8642C191.097 56.4831 191.283 56.9934 191.664 57.406C192.046 57.8186 192.548 58.0249 193.159 58.0249Z" fill="black"/>
<path d="M197.533 58.3941V53.3343H198.122V55.723H198.155L200.631 53.3343H201.482L198.831 55.7447L201.755 58.3941H200.882L198.155 55.8208H198.122V58.3941H197.533Z" fill="black"/>
<path d="M203.511 61H202.922V53.3343H203.511V54.3441H203.544C203.751 53.964 204.046 53.6817 204.406 53.4863C204.766 53.2908 205.158 53.204 205.573 53.204C206.347 53.204 206.969 53.4537 207.449 53.9532C207.929 54.4526 208.18 55.0933 208.18 55.8533C208.18 56.6242 207.94 57.254 207.46 57.7643C206.98 58.2747 206.358 58.5244 205.595 58.5244C205.169 58.5244 204.777 58.4267 204.406 58.2421C204.035 58.0466 203.751 57.7752 203.555 57.406H203.511V61ZM206.991 57.406C207.362 56.9934 207.536 56.4831 207.536 55.8642C207.536 55.2453 207.351 54.735 206.991 54.3224C206.631 53.9098 206.129 53.6926 205.507 53.6926C204.918 53.6926 204.428 53.8989 204.046 54.3224C203.664 54.7458 203.457 55.2561 203.457 55.8642C203.457 56.4831 203.653 56.9934 204.046 57.406C204.438 57.8186 204.918 58.0249 205.507 58.0249C206.129 58.0249 206.62 57.8186 206.991 57.406Z" fill="black"/>
<path d="M209.816 58.3941V53.3343H210.416V55.3213H211.78C212.402 55.3213 212.882 55.4624 213.209 55.7339C213.536 56.0053 213.711 56.3962 213.711 56.8848C213.711 57.3734 213.547 57.7426 213.22 58.0032C212.893 58.2638 212.413 58.3941 211.78 58.3941H209.816ZM210.416 57.8838H211.845C212.685 57.8838 213.1 57.5472 213.1 56.8848C213.1 56.1791 212.685 55.8208 211.845 55.8208H210.416V57.8838ZM214.714 58.3941V53.3343H215.303V58.3941H214.714Z" fill="black"/>
<path d="M218.445 58.3941V53.8338H216.569V53.3343H220.91V53.8338H219.034V58.3941H218.445Z" fill="black"/>
<path d="M222.176 58.3941V53.3343H222.776V57.5689L225.972 53.3343H226.616V58.3941H226.038V54.1269H226.016L222.819 58.3941H222.176Z" fill="black"/>
<path d="M228.339 58.3941L229.725 56.3094C228.863 56.1248 228.437 55.6362 228.437 54.8435C228.437 54.3658 228.612 53.9966 228.95 53.736C229.288 53.4754 229.757 53.3343 230.346 53.3343H232.452V58.3941H231.852V56.3528H230.368L229.059 58.3941H228.339ZM230.346 55.8533H231.852V53.8338H230.379C229.954 53.8338 229.616 53.9206 229.386 54.0943C229.157 54.2681 229.037 54.5178 229.037 54.8435C229.037 55.1584 229.157 55.3973 229.386 55.5819C229.616 55.7665 229.932 55.8533 230.346 55.8533Z" fill="black"/>
<path d="M93.5523 45.6469L93.2687 45.3971V43.7467L93.5523 43.497C95.1013 43.4753 96.1049 43.3993 96.5522 43.2581C96.9994 43.1169 97.4031 42.8455 97.7521 42.4329C98.1012 42.0203 98.8103 40.663 99.8793 38.372L103.239 31.1189L111.933 11.5203C113.57 7.68743 115.206 3.84372 116.82 0H118.893L134.361 36.2004C134.896 37.4057 135.507 38.7195 136.194 40.1419C136.881 41.5643 137.361 42.4003 137.634 42.6501C137.896 42.8998 138.234 43.1061 138.627 43.2364C139.019 43.3775 139.903 43.4535 141.267 43.4753L141.518 43.725V45.3754L141.267 45.6251C139.009 45.4297 136.969 45.3428 135.158 45.3428C131.623 45.4514 128.078 45.5491 124.544 45.6251L124.293 45.3754V43.725L124.544 43.4753C126.933 43.4318 128.416 43.3341 129.016 43.1712C129.616 43.0084 129.911 42.6501 129.911 42.0746C129.911 41.6077 129.758 40.9888 129.463 40.2287L125.536 30.5217H107.035L103.556 38.6652C102.934 40.131 102.628 41.1951 102.628 41.8791C102.628 42.4112 102.912 42.8021 103.49 43.0518C104.068 43.3015 105.519 43.4427 107.832 43.4644L108.115 43.7141V45.3645L107.864 45.6143C105.115 45.4405 102.705 45.3645 100.643 45.3645C98.2976 45.3971 95.9413 45.4731 93.5523 45.6469ZM108.126 27.8072H124.293L116.275 8.62122L108.126 27.8072Z" fill="black"/>
<path d="M203.173 0.542898L203.457 0.792631V2.35618L203.206 2.58419C200.86 2.64934 199.41 2.76878 198.842 2.93165C198.275 3.10538 197.882 3.38768 197.642 3.77857C197.402 4.16946 197.271 4.94037 197.239 6.08045C197.206 7.22054 197.151 10.4562 197.064 15.7875V30.4566C197.064 32.5739 197.097 34.9735 197.162 37.6445C197.228 40.3156 197.359 41.8683 197.566 42.3026C197.773 42.7369 198.133 43.0518 198.668 43.2581C199.202 43.4644 200.719 43.5947 203.206 43.6598L203.457 43.8879V45.4514L203.173 45.7011C199.704 45.5057 196.671 45.4188 194.097 45.4188C192.352 45.4188 189.374 45.5166 185.185 45.7011L184.901 45.4514V43.9204L185.152 43.6707C187.497 43.6056 188.948 43.4861 189.515 43.3232C190.083 43.1495 190.475 42.8781 190.715 42.4763C190.944 42.0854 191.086 41.3037 191.13 40.1419C191.174 38.9801 191.228 35.7552 191.294 30.4674V7.09025L180.265 30.0548C177.494 35.7987 175.072 41.2059 173.011 46.2766H171.767C170.578 43.5404 169.596 41.358 168.822 39.7184L153.55 8.13261V30.3697C153.55 32.4436 153.572 34.8432 153.626 37.5468C153.681 40.2504 153.812 41.814 154.03 42.2375C154.237 42.6609 154.619 42.9758 155.153 43.1929C155.688 43.4101 157.204 43.5295 159.691 43.573L159.942 43.8227V45.3537L159.659 45.636L157.608 45.5383C155.502 45.4297 153.692 45.3754 152.175 45.3754C151.488 45.3754 148.946 45.4623 144.539 45.6251L144.288 45.3754V43.8661L144.539 43.5838C146.885 43.5404 148.335 43.4318 148.881 43.269C149.437 43.0952 149.83 42.8129 150.081 42.4112C150.321 42.0094 150.463 41.2602 150.495 40.1527C150.528 39.0452 150.572 35.7987 150.637 30.3914V15.8092C150.637 13.8765 150.604 11.5311 150.561 8.76237C150.506 5.99359 150.375 4.39747 150.179 3.96315C149.972 3.52884 149.612 3.2031 149.077 2.9968C148.543 2.79049 147.026 2.6602 144.539 2.61677L144.288 2.36703V0.825205L144.572 0.542898C146.045 0.651477 148.019 0.705767 150.517 0.705767C152.862 0.705767 154.902 0.651477 156.648 0.542898C158.437 4.65806 160.149 8.38234 161.797 11.7049L173.905 36.4502L184.836 13.7679C187.792 7.644 189.788 3.22481 190.814 0.53204C192.864 0.640619 194.872 0.694909 196.857 0.694909C198.635 0.694909 200.74 0.651477 203.173 0.542898Z" fill="black"/>
<path d="M219.056 22.3674L222.001 19.8809C222.667 19.3272 223.441 18.6323 224.336 17.7853L227.085 15.1468L234.208 8.0566C237.295 4.9838 238.986 3.21396 239.291 2.74706V0.694909L239.608 0.445176C241.331 0.53204 242.782 0.575472 243.949 0.575472L249.96 0.47775L250.276 0.760057V2.22588L250.026 2.50819C248.106 2.5299 246.677 2.63848 245.728 2.84478C244.779 3.05109 243.786 3.4854 242.739 4.14774C241.691 4.81007 239.881 6.30847 237.306 8.62122L224.488 20.1632L244.266 38.6435C247.211 41.3797 248.913 42.8998 249.393 43.1929C249.873 43.4861 250.669 43.649 251.771 43.6707L252 43.9204V45.256L251.771 45.5057C247.909 45.4188 245.597 45.3211 244.8 45.2234C244.015 45.1148 243.219 44.8651 242.422 44.4633C241.626 44.0616 233.826 37.1125 219.045 23.6269V30.4023L219.078 36.6347C219.1 39.0126 219.165 40.5545 219.274 41.2602C219.383 41.966 219.536 42.4329 219.732 42.6609C219.929 42.8889 220.321 43.0735 220.878 43.2364C221.434 43.3993 222.874 43.5187 225.176 43.6056L225.405 43.801V45.3863L225.176 45.636C224.881 45.636 222.994 45.5708 219.514 45.4405C217.976 45.3971 216.798 45.3754 215.969 45.3754C215.631 45.3754 212.576 45.4623 206.827 45.6251L206.577 45.3754V43.7901L206.827 43.5947C209.773 43.4861 211.474 43.269 211.944 42.9215C212.413 42.5849 212.685 41.9226 212.762 40.9345C212.838 39.9464 212.893 36.4284 212.936 30.3914V15.6789L212.871 9.44642C212.871 7.04681 212.816 5.50498 212.707 4.79922C212.598 4.09345 212.445 3.63742 212.249 3.39854C212.042 3.17052 211.66 2.97508 211.104 2.82307C210.536 2.67106 209.118 2.56248 206.838 2.47561L206.587 2.2476V0.673193L206.838 0.445176C212.096 0.618904 215.151 0.694909 215.98 0.694909C216.896 0.694909 219.961 0.608046 225.187 0.445176L225.416 0.673193V2.25845L225.187 2.48647C223.103 2.55162 221.74 2.64934 221.107 2.79049C220.474 2.93165 220.06 3.10538 219.841 3.31168C219.623 3.52884 219.449 3.96315 219.318 4.61463C219.176 5.27697 219.1 6.71022 219.078 8.9361L219.045 15.6789V22.3674H219.056Z" fill="black"/>
</svg>
